<svg version="1.2" preserveAspectRatio="xMidYMid meet" viewBox="108.98400000000002 118.066497166404 155.98725 116.97449719261202" zoomAndPan="magnify" xmlns:xlink="http://www.w3.org/1999/xlink" xmlns="http://www.w3.org/2000/svg" style="max-height: 500px" width="155.98725" height="116.97449719261202"><defs><clipPath id="d52d848e8d"><path d="M 112.5 120.796875 L 262.5 120.796875 L 262.5 229.546875 L 112.5 229.546875 Z M 112.5 120.796875"/></clipPath></defs><g id="bb2b890130"><g clip-path="url(#d52d848e8d)" clip-rule="nonzero"><path d="M 170.128906 181.417969 C 175.019531 186.589844 177.46875 193.054688 177.46875 200.8125 C 177.46875 209.71875 174.300781 217.046875 167.96875 222.789062 C 167.007812 223.75 166.050781 224.5625 165.089844 225.230469 C 167.105469 221.691406 168.113281 217.714844 168.113281 213.308594 C 168.113281 207.183594 166.289062 202.15625 162.644531 198.226562 C 162.164062 197.84375 161.539062 197.320312 160.773438 196.648438 C 160.003906 195.980469 158.832031 195.136719 157.246094 194.132812 C 155.664062 193.125 153.597656 191.90625 151.0625 190.46875 C 148.515625 189.03125 145.328125 187.261719 141.492188 185.152344 C 129.691406 179.023438 121.824219 172.941406 117.890625 166.90625 C 114.339844 161.839844 112.566406 155.613281 112.566406 148.234375 C 112.566406 141.050781 114.675781 135.019531 118.898438 130.132812 C 118.703125 130.902344 118.5625 131.714844 118.46875 132.574219 C 118.371094 133.4375 118.324219 134.296875 118.324219 135.160156 C 118.324219 141.289062 120.628906 146.652344 125.230469 151.25 C 127.148438 153.167969 129.886719 155.347656 133.4375 157.789062 C 136.984375 160.230469 141.445312 162.9375 146.820312 165.90625 C 154.203125 170.023438 159.625 173.300781 163.082031 175.746094 C 166.53125 178.1875 168.878906 180.078125 170.128906 181.417969 Z M 112.566406 215.753906 C 114.007812 218.339844 115.660156 220.804688 117.535156 223.152344 C 119.40625 225.5 121.585938 227.628906 124.082031 229.542969 L 112.566406 229.542969 Z M 261.003906 217.332031 L 261.003906 129.132812 C 261.003906 128.367188 261.046875 127.191406 261.144531 125.609375 C 261.238281 124.03125 261.671875 122.425781 262.441406 120.796875 L 244.308594 120.796875 L 215.964844 204.355469 L 212.9375 196.792969 C 209.578125 188.367188 205.957031 178.789062 202.074219 168.0625 C 198.191406 157.335938 194.039062 145.414062 189.628906 132.292969 C 188.761719 129.898438 188.113281 128.054688 187.6875 126.761719 C 187.253906 125.46875 186.941406 124.511719 186.75 123.886719 C 186.558594 123.265625 186.4375 122.832031 186.390625 122.59375 C 186.339844 122.355469 186.320312 122.089844 186.320312 121.804688 C 186.320312 121.328125 186.363281 120.988281 186.460938 120.796875 L 162 120.796875 C 164.492188 122.714844 166.675781 124.84375 168.546875 127.191406 C 170.417969 129.539062 172.074219 131.957031 173.515625 134.445312 C 174.28125 136.742188 175.097656 138.96875 175.960938 141.125 C 176.824219 143.277344 177.636719 145.410156 178.40625 147.515625 C 181.089844 154.121094 183.394531 159.941406 185.316406 164.96875 C 187.230469 169.996094 188.863281 174.1875 190.207031 177.539062 C 193.085938 185.296875 195.699219 192.242188 198.050781 198.371094 C 200.398438 204.5 202.4375 209.910156 204.167969 214.601562 C 204.457031 215.371094 204.859375 216.445312 205.390625 217.835938 C 205.914062 219.222656 206.46875 220.683594 207.042969 222.214844 C 207.621094 223.75 208.144531 225.183594 208.628906 226.527344 C 209.105469 227.867188 209.492188 228.875 209.777344 229.542969 C 211.121094 225.617188 212.414062 221.832031 213.664062 218.195312 C 214.675781 215.234375 234.828125 154.925781 242.929688 130.671875 C 243.367188 129.355469 245.316406 129.667969 245.320312 131.054688 C 245.320312 131.082031 245.320312 131.109375 245.320312 131.140625 L 245.320312 218.625 C 245.320312 221.691406 245.265625 224.058594 245.175781 225.734375 C 245.078125 227.414062 244.9375 228.679688 244.742188 229.542969 L 261.871094 229.542969 C 261.582031 228.296875 261.363281 226.71875 261.222656 224.800781 C 261.074219 222.890625 261.003906 220.398438 261.003906 217.332031 Z M 261.003906 217.332031" style="stroke:none;fill-rule:nonzero;fill:#000000;fill-opacity:1;"/></g></g></svg>