<svg version="1.2" preserveAspectRatio="xMidYMid meet" viewBox="108.98400000000002 118.066497166404 155.98725 116.97449719261202" zoomAndPan="magnify" xmlns:xlink="http://www.w3.org/1999/xlink" xmlns="http://www.w3.org/2000/svg" style="max-height: 500px" width="155.98725" height="116.97449719261202"><defs><clipPath id="6edd0aa21a"><path d="M 112.5 120.796875 L 262.5 120.796875 L 262.5 229.546875 L 112.5 229.546875 Z M 112.5 120.796875"/></clipPath></defs><g id="8f7f6e69fa"><g clip-path="url(#6edd0aa21a)" clip-rule="nonzero"><path d="M 170.128906 181.523438 C 175.019531 186.703125 177.46875 193.179688 177.46875 200.949219 C 177.46875 209.871094 174.300781 217.210938 167.96875 222.964844 C 167.007812 223.925781 166.050781 224.742188 165.089844 225.410156 C 167.105469 221.863281 168.113281 217.878906 168.113281 213.46875 C 168.113281 207.332031 166.289062 202.292969 162.644531 198.359375 C 162.164062 197.976562 161.539062 197.449219 160.773438 196.777344 C 160.003906 196.109375 158.832031 195.265625 157.246094 194.257812 C 155.664062 193.25 153.597656 192.027344 151.0625 190.589844 C 148.515625 189.148438 145.328125 187.375 141.492188 185.261719 C 129.691406 179.125 121.824219 173.03125 117.890625 166.988281 C 114.339844 161.910156 112.566406 155.671875 112.566406 148.28125 C 112.566406 141.085938 114.675781 135.042969 118.898438 130.148438 C 118.703125 130.917969 118.5625 131.730469 118.46875 132.597656 C 118.371094 133.460938 118.324219 134.320312 118.324219 135.1875 C 118.324219 141.328125 120.628906 146.695312 125.230469 151.304688 C 127.148438 153.222656 129.886719 155.40625 133.4375 157.851562 C 136.984375 160.300781 141.445312 163.011719 146.820312 165.984375 C 154.203125 170.109375 159.625 173.394531 163.082031 175.839844 C 166.53125 178.285156 168.878906 180.179688 170.128906 181.523438 Z M 112.566406 215.917969 C 114.007812 218.507812 115.660156 220.976562 117.535156 223.328125 C 119.40625 225.679688 121.585938 227.8125 124.082031 229.730469 L 112.566406 229.730469 Z M 261.003906 217.5 L 261.003906 129.144531 C 261.003906 128.378906 261.046875 127.203125 261.144531 125.617188 C 261.238281 124.035156 261.671875 122.429688 262.441406 120.796875 L 244.308594 120.796875 L 215.964844 204.496094 L 212.9375 196.925781 C 209.578125 188.484375 205.957031 178.886719 202.074219 168.144531 C 198.191406 157.398438 194.039062 145.457031 189.628906 132.3125 C 188.761719 129.914062 188.113281 128.066406 187.6875 126.773438 C 187.253906 125.476562 186.941406 124.515625 186.75 123.894531 C 186.558594 123.269531 186.4375 122.835938 186.390625 122.597656 C 186.339844 122.355469 186.320312 122.089844 186.320312 121.804688 C 186.320312 121.328125 186.363281 120.988281 186.460938 120.796875 L 162 120.796875 C 164.492188 122.71875 166.675781 124.851562 168.546875 127.199219 C 170.417969 129.554688 172.074219 131.976562 173.515625 134.46875 C 174.28125 136.769531 175.097656 139 175.960938 141.160156 C 176.824219 143.316406 177.636719 145.453125 178.40625 147.5625 C 181.089844 154.179688 183.394531 160.011719 185.316406 165.046875 C 187.230469 170.082031 188.863281 174.28125 190.207031 177.636719 C 193.085938 185.410156 195.699219 192.367188 198.050781 198.503906 C 200.398438 204.644531 202.4375 210.0625 204.167969 214.765625 C 204.457031 215.535156 204.859375 216.613281 205.390625 218.003906 C 205.914062 219.394531 206.46875 220.855469 207.042969 222.390625 C 207.621094 223.925781 208.144531 225.363281 208.628906 226.707031 C 209.105469 228.054688 209.492188 229.058594 209.777344 229.730469 C 211.121094 225.796875 212.414062 222.007812 213.664062 218.363281 C 214.675781 215.398438 234.828125 154.984375 242.929688 130.6875 C 243.367188 129.371094 245.316406 129.683594 245.320312 131.070312 C 245.320312 131.097656 245.320312 131.125 245.320312 131.15625 L 245.320312 218.792969 C 245.320312 221.863281 245.265625 224.238281 245.175781 225.917969 C 245.078125 227.597656 244.9375 228.867188 244.742188 229.730469 L 261.871094 229.730469 C 261.582031 228.480469 261.363281 226.898438 261.222656 224.980469 C 261.074219 223.066406 261.003906 220.570312 261.003906 217.5 Z M 261.003906 217.5" style="stroke:none;fill-rule:nonzero;fill:#ffffff;fill-opacity:1;"/></g></g></svg>